0
SECTION
2
HEADER
9
$ACADVER
1
AC1015
0
ENDSEC
0
SECTION
2
TABLES
0
TABLE
2
BLOCK_RECORD
70
1
0
BLOCK_RECORD
5
10
330
1
100
AcDbSymbolTableRecord
100
AcDbBlockTableRecord
2
MISSING_XREF
0
ENDTAB
0
ENDSEC
0
SECTION
2
BLOCKS
0
BLOCK
5
20
330
10
100
AcDbEntity
8
0
100
AcDbBlockBegin
2
MISSING_XREF
70
4
10
0
20
0
30
0
3
MISSING_XREF
1
missing-reference.dwg
0
ENDBLK
5
21
330
10
100
AcDbEntity
8
0
100
AcDbBlockEnd
0
ENDSEC
0
SECTION
2
ENTITIES
0
INSERT
5
30
100
AcDbEntity
8
0
100
AcDbBlockReference
2
MISSING_XREF
10
0
20
0
30
0
0
ENDSEC
0
EOF
