0
SECTION
2
HEADER
9
$ACADVER
1
AC1015
0
ENDSEC
0
SECTION
2
TABLES
0
TABLE
2
LAYER
70
1
0
LAYER
2
0
70
0
62
7
6
CONTINUOUS
0
ENDTAB
0
ENDSEC
0
SECTION
2
BLOCKS
0
BLOCK
8
0
2
INNER
70
0
10
0.0
20
0.0
30
0.0
3
INNER
1

0
LINE
8
0
10
0
20
0
30
0
11
10
21
0
31
0
0
ENDBLK
8
0
0
BLOCK
8
0
2
OUTER
70
0
10
0.0
20
0.0
30
0.0
3
OUTER
1

0
INSERT
8
0
2
INNER
10
5
20
5
30
0
0
ENDBLK
8
0
0
ENDSEC
0
SECTION
2
ENTITIES
0
LINE
8
0
10
0
20
0
30
0
11
100
21
0
31
0
0
CIRCLE
8
0
10
30
20
30
30
0
40
10
0
ARC
8
0
10
60
20
30
30
0
40
10
50
0
51
180
0
LWPOLYLINE
8
0
90
4
70
1
10
0
20
50
10
20
20
50
10
20
20
70
10
0
20
70
0
TEXT
8
0
10
0
20
90
30
0
40
5
1
\U+0130stanbul \U+00C7\U+011E\U+00D6\U+015E\U+00DC \U+0131\U+0130
7
STANDARD
0
INSERT
8
0
2
OUTER
10
50
20
60
30
0
0
ENDSEC
0
EOF
